<!-- Tree 0af - Sky blue themed birch cluster -->
<svg width="32" height="48" viewBox="0 0 32 48" xmlns="http://www.w3.org/2000/svg">
  <!-- Multiple thin birch trunks -->
  <rect x="10" y="18" width="3" height="30" rx="1.5" fill="#E8E8E0"/>
  <rect x="16" y="12" width="3" height="36" rx="1.5" fill="#F0F0E8"/>
  <rect x="22" y="20" width="3" height="28" rx="1.5" fill="#E8E8E0"/>
  
  <!-- Black birch marks -->
  <rect x="10" y="24" width="3" height="2" rx="0.5" fill="#2A2A2A"/>
  <rect x="10" y="32" width="3" height="1.5" rx="0.5" fill="#2A2A2A"/>
  <rect x="10" y="40" width="3" height="2" rx="0.5" fill="#2A2A2A"/>
  <rect x="16" y="20" width="3" height="2" rx="0.5" fill="#2A2A2A"/>
  <rect x="16" y="28" width="3" height="1.5" rx="0.5" fill="#2A2A2A"/>
  <rect x="16" y="38" width="3" height="2" rx="0.5" fill="#2A2A2A"/>
  <rect x="22" y="26" width="3" height="1.5" rx="0.5" fill="#2A2A2A"/>
  <rect x="22" y="36" width="3" height="2" rx="0.5" fill="#2A2A2A"/>
  
  <!-- Light blue leaves clusters -->
  <ellipse cx="11" cy="16" rx="5" ry="4" fill="#00AAFF" opacity="0.4"/>
  <ellipse cx="17" cy="10" rx="6" ry="5" fill="#00AAFF" opacity="0.5"/>
  <ellipse cx="23" cy="18" rx="5" ry="4" fill="#00AAFF" opacity="0.4"/>
  <ellipse cx="9" cy="12" rx="3" ry="3" fill="#55CCFF" opacity="0.6"/>
  <ellipse cx="20" cy="6" rx="4" ry="3" fill="#55CCFF" opacity="0.6"/>
  <ellipse cx="25" cy="14" rx="3" ry="3" fill="#55CCFF" opacity="0.6"/>
</svg>
