<?xml version="1.0" encoding="UTF-8"?>
<svg width="64" height="80" viewBox="0 0 64 80" xmlns="http://www.w3.org/2000/svg">
  <ellipse cx="32" cy="62" rx="20" ry="5" fill="#00000030"/>
  <ellipse cx="32" cy="62" rx="24" ry="8" fill="#3B3F47"/>
  <path d="M 8 62 L 8 56 Q 8 52 12 50 L 52 50 Q 56 52 56 56 L 56 62" fill="#4B5563" stroke="#374151" stroke-width="1"/>
  <ellipse cx="32" cy="50" rx="20" ry="7" fill="#6B7280"/>
  <rect x="12" y="30" width="40" height="20" fill="#5A6169"/>
  <ellipse cx="32" cy="30" rx="20" ry="7" fill="#7B8290" stroke="#4B5563" stroke-width="1.5"/>
  <ellipse cx="32" cy="26" rx="16" ry="6" fill="#8B92A0"/>
  <path d="M 16 26 Q 16 18 32 16 Q 48 18 48 26" fill="#9CA3AF" stroke="#6B7280" stroke-width="1"/>
  
  <rect x="24" y="32" width="16" height="14" rx="2" fill="#4A5057" stroke="#2D3338" stroke-width="1"/>
  <rect x="26" y="34" width="12" height="4" rx="1" fill="#60A5FA" opacity="0.7"/>
  <text x="33" y="37" font-family="monospace" font-size="3" fill="#E0F2FE">※▲◆</text>
  <rect x="26" y="40" width="12" height="2" rx="0.5" fill="#34D399" opacity="0.6"/>
  <rect x="26" y="43" width="5" height="1" rx="0.5" fill="#F59E0B" opacity="0.6"/>
  <rect x="33" y="43" width="5" height="1" rx="0.5" fill="#F59E0B" opacity="0.6"/>
  
  <path d="M 27 50 L 27 60 Q 27 61 28 61 L 36 61 Q 37 61 37 60 L 37 50" fill="#374151" stroke="#1F2937" stroke-width="1.2"/>
  <circle cx="35" cy="55" r="1" fill="#6B7280"/>
  <line x1="29" y1="54" x2="33" y2="54" stroke="#4B5563" stroke-width="0.8"/>
  <line x1="29" y1="57" x2="33" y2="57" stroke="#4B5563" stroke-width="0.8"/>
  
  <!-- Antennas rotated 60° -->
  <g transform="translate(18, 28) rotate(-60, -4, -10)">
    <line x1="0" y1="0" x2="-4" y2="-10" stroke="#6B7280" stroke-width="2" stroke-linecap="round"/>
    <line x1="-4" y1="-10" x2="-8" y2="-14" stroke="#6B7280" stroke-width="1.5"/>
    <line x1="-4" y1="-10" x2="0" y2="-14" stroke="#6B7280" stroke-width="1.5"/>
    <circle cx="-4" cy="-10" r="2.5" fill="#4B5563" stroke="#2D3338" stroke-width="1"/>
    <circle cx="-4" cy="-10" r="1" fill="#3B82F6"/>
  </g>
  
  <g transform="translate(46, 28) rotate(60, 4, -10)">
    <line x1="0" y1="0" x2="4" y2="-10" stroke="#6B7280" stroke-width="2" stroke-linecap="round"/>
    <line x1="4" y1="-10" x2="0" y2="-14" stroke="#6B7280" stroke-width="1.5"/>
    <line x1="4" y1="-10" x2="8" y2="-14" stroke="#6B7280" stroke-width="1.5"/>
    <circle cx="4" cy="-10" r="2.5" fill="#4B5563" stroke="#2D3338" stroke-width="1"/>
    <circle cx="4" cy="-10" r="1" fill="#3B82F6"/>
  </g>
  
  <g transform="translate(14, 35)">
    <ellipse cx="0" cy="0" rx="3" ry="2" fill="#4B5563"/>
    <circle cx="0" cy="0" r="1.5" fill="#FCD34D" opacity="0.9"/>
    <path d="M -1 0 L -6 -3 L -6 3 Z" fill="#FCD34D" opacity="0.2"/>
  </g>
  <g transform="translate(50, 35)">
    <ellipse cx="0" cy="0" rx="3" ry="2" fill="#4B5563"/>
    <circle cx="0" cy="0" r="1.5" fill="#FCD34D" opacity="0.9"/>
    <path d="M 1 0 L 6 -3 L 6 3 Z" fill="#FCD34D" opacity="0.2"/>
  </g>
  
  <!-- LEDs: green ON, red OFF -->
  <circle cx="16" cy="38" r="1.2" fill="#10B981"/>
  <circle cx="16" cy="42" r="1.2" fill="#4B5563"/>
  <circle cx="48" cy="38" r="1.2" fill="#10B981"/>
  <circle cx="48" cy="42" r="1.2" fill="#4B5563"/>
  
  <g opacity="0.5">
    <line x1="13" y1="46" x2="13" y2="54" stroke="#2D3338" stroke-width="1"/>
    <line x1="15" y1="46" x2="15" y2="54" stroke="#2D3338" stroke-width="1"/>
    <line x1="49" y1="46" x2="49" y2="54" stroke="#2D3338" stroke-width="1"/>
    <line x1="51" y1="46" x2="51" y2="54" stroke="#2D3338" stroke-width="1"/>
  </g>
  
  <circle cx="20" cy="32" r="0.8" fill="#374151"/>
  <circle cx="44" cy="32" r="0.8" fill="#374151"/>
  <circle cx="20" cy="48" r="0.8" fill="#374151"/>
  <circle cx="44" cy="48" r="0.8" fill="#374151"/>
</svg>
